<?xml version="1.0" encoding="UTF-8" standalone="no"?>
<svg
   xmlns:dc="http://purl.org/dc/elements/1.1/"
   xmlns:cc="http://creativecommons.org/ns#"
   xmlns:rdf="http://www.w3.org/1999/02/22-rdf-syntax-ns#"
   xmlns:svg="http://www.w3.org/2000/svg"
   xmlns="http://www.w3.org/2000/svg"
   xmlns:sodipodi="http://sodipodi.sourceforge.net/DTD/sodipodi-0.dtd"
   xmlns:inkscape="http://www.inkscape.org/namespaces/inkscape"
   id="svg831"
   version="1.1"
   viewBox="0 0 800 800"
   height="800"
   width="800"
   sodipodi:docname="favicon.svg"
   inkscape:version="0.92.4 5da689c313, 2019-01-14">
  <sodipodi:namedview
     pagecolor="#ffffff"
     bordercolor="#666666"
     borderopacity="1"
     objecttolerance="10"
     gridtolerance="10"
     guidetolerance="10"
     inkscape:pageopacity="0"
     inkscape:pageshadow="2"
     inkscape:window-width="1865"
     inkscape:window-height="1016"
     id="namedview7"
     showgrid="false"
     inkscape:zoom="1.18"
     inkscape:cx="356.62728"
     inkscape:cy="400.97228"
     inkscape:window-x="55"
     inkscape:window-y="1110"
     inkscape:window-maximized="1"
     inkscape:current-layer="layer1" />
  <defs
     id="defs825" />
  <metadata
     id="metadata828">
    <rdf:RDF>
      <cc:Work
         rdf:about="">
        <dc:format>image/svg+xml</dc:format>
        <dc:type
           rdf:resource="http://purl.org/dc/dcmitype/StillImage" />
        <dc:title />
      </cc:Work>
    </rdf:RDF>
  </metadata>
  <g
     transform="translate(0,-85.333316)"
     id="layer1">
    <path
       d="m 373.97748,327.44169 5.56657,11.58058 m -8.02696,-22.66431 c -0.28762,11.43571 1.58381,21.38536 3.77741,27.85825 6.35218,-2.81012 13.26183,-3.77526 16.05384,-11.33219 -2.70463,-5.13279 -4.73098,-10.77434 -12.27647,-12.27651 m 188.39717,392.37607 31.63559,-16.52606 c -4.06825,-29.37029 -9.96828,-51.41367 -11.80426,-89.71291 m -95.37906,89.71291 c 5.98084,-3.36503 12.43389,-0.72049 18.41476,0 8.33182,-28.80261 1.80193,-59.02167 0.94436,-87.82428 m -22.66432,-95.85112 c 22.1325,14.30267 42.61977,32.80252 79.79728,49.57818 142.35553,38.31269 195.8242,-59.7298 99.62861,-91.12948 -11.38428,-1.52182 -21.47267,-4.33954 -31.63563,-7.08257 l -3.3052,-2.36088 M 346.01972,293.69364 c 13.8907,-38.91723 76.47492,-48.01368 118.51555,-18.88694 27.59043,56.93469 13.17898,116.64771 27.38604,172.81542 m -161.16851,0.78697 c 16.97519,59.64072 35.6891,104.51902 60.12341,129.06074 195.65351,152.35226 402.33267,-3.67767 400.24565,-68.6225 -4.34139,-36.25769 -17.21779,-42.95116 -29.11737,-56.34607 -20.72711,-5.05833 -61.63203,-1.05796 -111.4329,0.94435 -93.6963,18.94742 -139.99937,-12.90791 -172.5007,-5.03652 l -2.2035,3.77741 M 333.15594,304.7104 C 289.44212,314.98285 231.79415,303.12201 185.68137,331.24336 124.99817,373.46011 29.523554,479.06049 9.683665,541.58253 8.3518124,550.08847 7.6844461,557.48694 16.244789,549.5059 119.75003,461.24301 220.15937,433.44719 316.50814,429.93967 c 7.00558,3.61017 8.0383,3.63663 11.24576,4.96793 l 5.93768,1.57394"
       style="opacity:1;vector-effect:none;fill:none;fill-opacity:1;fill-rule:evenodd;stroke:#000000;stroke-width:20;stroke-linecap:round;stroke-linejoin:round;stroke-miterlimit:4;stroke-dasharray:none;stroke-dashoffset:0;stroke-opacity:1"
       id="path5829" />
  </g>
</svg>
